<?xml version="1.0" encoding="UTF-8"?>
<svg version="1.1" xmlns="http://www.w3.org/2000/svg" width="1309" height="1309">
<path d="M0 0 C0.73685028 0.00149048 1.47370056 0.00298096 2.23287964 0.0045166 C14.46427768 0.04876088 26.30258659 0.85866466 38.3125 3.3125 C39.04629883 3.45703613 39.78009766 3.60157227 40.53613281 3.75048828 C70.09553588 9.70058658 109.84904908 23.03843711 128.3125 48.3125 C131.53225433 54.57765373 131.83524751 60.50082032 130.3125 67.3125 C129 70.625 129 70.625 127.3125 73.3125 C126.5390625 74.5809375 126.5390625 74.5809375 125.75 75.875 C120.68101399 80.94398601 114.8065767 83.60476844 107.625 83.8125 C99.40389117 83.71269898 93.34631304 79.14884212 86.875 74.625 C70.09243519 63.200994 52.47684432 55.94141114 32.78125 51.1328125 C31.67491211 50.85961182 30.56857422 50.58641113 29.42871094 50.30493164 C26.72408895 49.63753842 24.01869607 48.97347597 21.3125 48.3125 C21.31526538 49.27402733 21.31803076 50.23555466 21.32087994 51.22621918 C21.38749684 74.62894899 21.43678596 98.0316665 21.46793652 121.43447113 C21.48340132 132.7519213 21.50448354 144.0693088 21.53881836 155.38671875 C21.56873245 165.25167842 21.58807781 175.1165927 21.59476548 184.98159647 C21.59867431 190.20439682 21.60785272 195.42706734 21.62969017 200.64982605 C21.65008698 205.56798801 21.6563273 210.48596693 21.65182304 215.40416718 C21.65264681 217.20688116 21.65859338 219.00960141 21.67011642 220.81227875 C21.6851107 223.27949417 21.68142861 225.74602453 21.67326355 228.21325684 C21.68200207 228.92145238 21.6907406 229.62964793 21.69974393 230.35930395 C21.64194853 236.84994521 20.11881283 242.17344533 15.9375 247.125 C9.85856958 252.19077535 4.9781938 253.6890263 -2.8359375 253.5859375 C-9.74127723 252.92378164 -14.08481112 249.44751315 -18.4609375 244.2890625 C-21.574164 239.27220706 -21.97504911 234.21920383 -21.92800903 228.45376587 C-21.92971788 227.68093148 -21.93142673 226.90809708 -21.93318737 226.11184347 C-21.93647139 223.53231187 -21.9254966 220.95304264 -21.91455078 218.37353516 C-21.91398643 216.52045701 -21.91430369 214.66737842 -21.91543579 212.81430054 C-21.91600938 207.78998343 -21.90425403 202.7657619 -21.89028788 197.741467 C-21.87778157 192.48840603 -21.87661009 187.23534285 -21.87423706 181.98226929 C-21.86802201 172.03764436 -21.85161082 162.09306344 -21.83153808 152.14845788 C-21.8091799 140.82568664 -21.79818585 129.5029133 -21.78814721 118.18012547 C-21.76724464 94.8908926 -21.73206813 71.60169876 -21.6875 48.3125 C-25.51565964 49.24983351 -29.34194969 50.19459533 -33.16796875 51.140625 C-34.24300659 51.40375488 -35.31804443 51.66688477 -36.42565918 51.93798828 C-56.5640497 56.9312951 -74.70671291 65.56053171 -91.52539062 77.7331543 C-98.49110623 82.76076849 -104.05211161 84.23772018 -112.6875 83.3125 C-119.84603388 81.52286653 -124.61116282 77.3761927 -128.6875 71.3125 C-131.76860725 65.08845727 -131.80111746 57.60486096 -130.0703125 50.93359375 C-122.07044779 32.84540407 -91.43438362 20.57437848 -74.4609375 13.7265625 C-50.45431001 4.51295541 -25.67538535 -0.12979335 0 0 Z " fill="#0092FE" transform="translate(189.6875,489.6875)"/>
<path d="M0 0 C14.51947399 15.25134992 21.51334636 34.78490154 22.125 55.6875 C21.45891354 78.79780414 14.37797187 100.65657004 -2.67285156 116.92382812 C-20.14866207 132.31119812 -43.49360277 137.65770575 -66.25 136.3125 C-82.14050191 134.68270493 -96.35233279 128.07606713 -107.25 116.3125 C-108.58992815 114.65113065 -109.92409478 112.98508211 -111.25 111.3125 C-111.25142502 112.34709351 -111.25285004 113.38168701 -111.25431824 114.44763184 C-111.27101683 124.21687375 -111.31387781 133.98570064 -111.38209057 143.7547226 C-111.41632273 148.77664617 -111.44146469 153.79826674 -111.44555664 158.8203125 C-111.44984766 163.67057165 -111.47837707 168.52014773 -111.52343178 173.37019348 C-111.5363811 175.21682246 -111.54072358 177.0635333 -111.53615379 178.91020203 C-111.53122938 181.50533006 -111.5574195 184.09847567 -111.59057617 186.69335938 C-111.58195053 187.4500592 -111.57332489 188.20675903 -111.56443787 188.98638916 C-111.68808849 194.79210383 -113.59321577 198.81368358 -117.25 203.3125 C-123.27470238 208.10767128 -128.72465944 209.0128278 -136.25 208.3125 C-141.46518238 206.66102558 -144.82637919 204.59202601 -148.25 200.3125 C-151.73739709 193.1452977 -151.66980008 186.55849367 -151.62231445 178.68310547 C-151.62474627 177.315493 -151.62846937 175.94788231 -151.63337708 174.58027649 C-151.64274174 170.88355119 -151.63339524 167.18709277 -151.62004495 163.49038839 C-151.60866865 159.60387259 -151.61284307 155.71736876 -151.61479187 151.83084106 C-151.61567353 145.29929286 -151.60462653 138.76784868 -151.58618164 132.23632812 C-151.56506921 124.71785589 -151.56149362 117.19953651 -151.5677436 109.68104064 C-151.57347049 102.41631892 -151.56774927 95.15165026 -151.55657005 87.88693619 C-151.5519624 84.81155527 -151.55103348 81.73620722 -151.5531559 78.66082382 C-151.5550618 75.02457503 -151.54676137 71.38847818 -151.5310955 67.75226402 C-151.524936 65.80603872 -151.52832528 63.85979022 -151.53216553 61.91355896 C-151.3850923 37.12571007 -144.69517023 16.25331176 -127.5 -1.8125 C-114.99708911 -13.95872124 -98.36573166 -21.1140129 -81.25 -23.6875 C-80.31414062 -23.82929687 -79.37828125 -23.97109375 -78.4140625 -24.1171875 C-49.81072826 -27.40216426 -21.18973933 -19.91443094 0 0 Z M-99.6875 25.1875 C-108.2649459 36.78196163 -110.37310485 49.06754988 -109.25 63.3125 C-107.04401491 75.91435495 -101.51958195 85.3063062 -91.78515625 93.5546875 C-81.56116008 100.64374494 -70.40238779 102.20661351 -58.25 101.3125 C-45.44101998 98.80234154 -35.61745343 92.69827091 -28.125 82 C-20.34079181 69.99350921 -19.34957738 55.5096248 -21.93359375 41.64453125 C-25.18650845 31.21090859 -31.58503248 21.30228746 -41.08203125 15.6171875 C-60.96363829 5.26374685 -84.55431207 7.20636895 -99.6875 25.1875 Z " fill="#0092FE" transform="translate(598.25,610.6875)"/>
<path d="M0 0 C24.56846983 -0.51121663 47.80793528 5.89481403 66.00390625 23.12109375 C85.98268973 43.60113703 87.09027524 70.78768275 87.48071289 97.70605469 C87.52037217 100.32119218 87.57186072 102.93588778 87.625 105.55078125 C87.63762123 106.75237381 87.63762123 106.75237381 87.65049744 107.97824097 C87.72789207 113.37235545 87.72789207 113.37235545 90.00390625 118.12109375 C92.00588182 119.0665248 92.00588182 119.0665248 94.31640625 119.55859375 C99.58769426 121.12642057 102.46385124 123.55433539 105.31640625 128.30859375 C106.66074186 133.80814851 106.70356601 139.06098446 104.87890625 144.43359375 C101.53507737 149.22641515 97.56729357 152.37480829 92.00390625 154.12109375 C79.69984164 155.20304626 68.89716588 154.51417108 59.06640625 146.30859375 C55.48798997 142.89050078 53.1360385 139.57076106 51.00390625 135.12109375 C50.07578125 135.96671875 49.14765625 136.81234375 48.19140625 137.68359375 C32.38496202 151.08745846 14.53920622 155.53017922 -5.80859375 155.43359375 C-7.04891357 155.4279541 -8.2892334 155.42231445 -9.56713867 155.41650391 C-18.10927809 155.30296096 -25.84294976 154.84914193 -33.99609375 152.12109375 C-35.84654297 151.5178125 -35.84654297 151.5178125 -37.734375 150.90234375 C-54.76836148 144.935201 -67.51694283 133.33600775 -75.3840332 117.16381836 C-85.22123462 95.81161635 -84.1821334 69.71730791 -76.37109375 47.87109375 C-68.78796486 28.12502206 -53.62128449 14.94617867 -34.58984375 6.47265625 C-23.42462879 2.27356454 -11.87194572 0.47983092 0 0 Z M-27.99609375 41.12109375 C-28.62128906 41.62253906 -29.24648438 42.12398437 -29.890625 42.640625 C-38.60792056 50.44630795 -42.51241513 61.61651771 -43.24609375 73 C-43.74059488 85.9585787 -41.65484857 97.9614881 -32.99609375 108.12109375 C-27.69073674 113.72675399 -22.33614054 117.67441149 -14.99609375 120.12109375 C-14.32320312 120.34539062 -13.6503125 120.5696875 -12.95703125 120.80078125 C0.8797389 124.58386822 15.18062765 122.21757931 27.65625 115.5546875 C38.4149838 108.98487834 44.19244326 99.09681731 47.56323242 87.13647461 C50.32679235 74.49758972 48.0048442 60.26347262 41.31640625 49.30859375 C34.11514977 39.52134991 24.88654856 33.72893617 13.00390625 31.12109375 C-1.97766161 29.78984768 -15.98273332 31.37351446 -27.99609375 41.12109375 Z " fill="#0092FE" transform="translate(324.99609375,588.87890625)"/>
<path d="M0 0 C14.66470815 13.79214394 21.75681886 33.7286866 22.36470032 53.53637695 C22.4481707 58.47514002 22.47546205 63.41214618 22.47265625 68.3515625 C22.47627834 71.38566981 22.48586053 74.41921215 22.51341248 77.45320129 C22.53006193 79.32185213 22.53318723 81.19069069 22.520401 83.05937195 C22.56194126 88.16250357 23.01611211 91.76727462 25.91015625 96.1640625 C28.21984918 97.53922095 28.21984918 97.53922095 30.84765625 98.2265625 C35.22025299 99.77956629 37.56912305 100.96971136 39.91015625 105.1640625 C42.13568064 110.6748848 42.33695457 115.45686921 40.91015625 121.1640625 C38.29668031 126.29421898 34.74794622 129.85274474 29.1953125 131.75 C18.42726831 133.70113279 6.83663593 132.93886089 -2.328125 126.62109375 C-7.03458731 122.74779049 -10.65484356 118.17343777 -14.08984375 113.1640625 C-14.55390625 113.64875 -15.01796875 114.1334375 -15.49609375 114.6328125 C-32.57648756 131.20334381 -54.46400853 133.70135076 -77.19140625 133.43359375 C-96.70034653 132.89330523 -114.44200882 126.4460905 -128.08984375 112.1640625 C-129.03730469 111.24560547 -129.03730469 111.24560547 -130.00390625 110.30859375 C-143.93024508 95.92213359 -146.73583194 75.95480956 -146.55834961 56.83349609 C-146.03174867 37.99410688 -140.99966541 19.49487155 -128.08984375 5.1640625 C-127.38472656 4.36742187 -126.67960938 3.57078125 -125.953125 2.75 C-94.1484748 -31.15447413 -33.78437291 -29.67972947 0 0 Z M-97.40234375 23.4765625 C-102.39943883 29.79017272 -105.79351965 37.2240774 -107.08984375 45.1640625 C-107.22390625 45.97230469 -107.35796875 46.78054688 -107.49609375 47.61328125 C-109.18826342 60.78528378 -106.6974682 74.06945649 -98.90234375 84.9140625 C-91.98583445 93.2580216 -81.77205604 98.50729398 -71.08984375 100.1640625 C-56.27583525 101.06292883 -42.57970286 98.98590883 -30.80078125 89.27734375 C-20.74190145 79.68938529 -16.2554854 68.40809367 -15.83984375 54.6015625 C-15.98821432 42.61322065 -19.01235263 30.97504392 -27.12890625 21.87890625 C-38.49921456 11.13135334 -51.19787995 8.5263918 -66.31640625 8.85546875 C-78.61939823 9.44260163 -89.0272746 14.46379773 -97.40234375 23.4765625 Z " fill="#0092FE" transform="translate(1104.08984375,610.8359375)"/>
<path d="M0 0 C4.5014465 4.80559829 5.36071954 10.01209987 5.27734375 16.3671875 C4.69929911 21.85454089 2.21014082 26.15048009 -1.75 29.9375 C-6.10285611 32.69988945 -10.18363607 33.45616729 -15.23535156 32.63793945 C-17.59788379 32.05388304 -19.92094046 31.39310178 -22.25 30.6875 C-34.06438565 27.21442683 -45.29559993 25.6527105 -57.625 25.6875 C-58.77484375 25.67138672 -59.9246875 25.65527344 -61.109375 25.63867188 C-67.90124692 25.63480407 -74.83535333 25.81319113 -81 29 C-82.20776206 32.62328619 -82.40040892 35.19611527 -82 39 C-78.47718818 42.49681321 -75.27596286 43.79105759 -70.5 44.9375 C-69.49912354 45.17944092 -69.49912354 45.17944092 -68.47802734 45.42626953 C-62.50428965 46.80261661 -56.47192046 47.77193466 -50.42333984 48.75561523 C-8.09068455 55.65868417 -8.09068455 55.65868417 4 72 C10.57469091 84.03647842 11.91602169 96.92357268 9.3515625 110.41015625 C5.1294611 122.95015827 -3.20987325 131.42180898 -14.8125 137.46484375 C-27.38543472 143.08508223 -41.41798752 146.09360377 -55.15234375 146.23828125 C-55.92130981 146.24802979 -56.69027588 146.25777832 -57.48254395 146.26782227 C-113.62455214 146.83248918 -113.62455214 146.83248918 -129 133 C-133.15759683 127.4087491 -132.74734682 120.65969055 -132 114 C-130.40958306 109.0577366 -127.24210481 105.90249276 -123 103 C-115.97176677 99.48588338 -106.60870759 102.8909711 -99.5625 104.875 C-81.54714565 109.62976525 -57.3143056 114.68740011 -40 105 C-37.12051008 102.55924147 -35.480138 100.85108894 -35 97.0625 C-34.79608099 94.09189608 -34.9866979 93.02787107 -36.3125 90.25 C-45.54268296 82.52240497 -59.22646705 82.00562026 -70.6796875 80.14819336 C-110.21055297 73.67501414 -110.21055297 73.67501414 -121.6015625 59.14453125 C-128.44638207 48.6478666 -129.24701898 36.07031073 -126.86328125 23.95703125 C-123.30776844 11.77819326 -116.74410737 3.47020831 -106 -3 C-79.21873321 -16.76054039 -25.70713949 -18.7011165 0 0 Z " fill="#0092FE" transform="translate(765,599)"/>
<path d="M0 0 C6.99147348 0.46609823 11.94345451 1.89833007 16.75 7.1875 C20.95068402 12.23415511 20.89537443 16.74543039 20.87457275 23.13829041 C20.8759829 23.93855654 20.87739305 24.73882267 20.87884593 25.56333929 C20.88249915 28.24789161 20.87916232 30.93239111 20.87597656 33.61694336 C20.87737133 35.54043112 20.87927064 37.46391858 20.88163757 39.3874054 C20.88613485 43.53110437 20.88799066 47.67479344 20.88809967 51.8184948 C20.88923933 58.36897675 20.90207197 64.91940225 20.91766357 71.46986389 C20.92023643 72.57500822 20.92280928 73.68015254 20.9254601 74.81878608 C20.93072659 77.07861269 20.93601207 79.33843925 20.94131613 81.59826577 C20.97644425 96.84961764 21.00297509 112.10089923 21.00048828 127.35229492 C20.99890117 137.63887455 21.01489932 147.92526175 21.05119491 158.21177965 C21.06967815 163.6563553 21.07897691 169.10060956 21.06671906 174.54520988 C21.05530461 179.66467496 21.06693393 184.78356389 21.09635353 189.90295219 C21.10300801 191.78269915 21.1011036 193.66249862 21.09005547 195.54222488 C21.07622994 198.1070848 21.09302286 200.6699871 21.11749268 203.23472595 C21.1061373 203.98005913 21.09478192 204.72539231 21.08308244 205.49331135 C21.15527879 209.37980408 21.63484483 211.10400261 24.07078171 214.19236088 C26.68509072 216.47215601 26.68509072 216.47215601 30.25 217.1875 C34.75155366 218.55404308 36.1507606 220.38827289 38.75 224.25 C41.48767673 230.2468157 41.54712246 235.77472501 39.5625 241.9375 C36.63218772 247.29289831 33.2964421 250.78106761 27.37890625 252.74609375 C15.81431554 254.9627835 4.14849526 253.68380314 -6 247.625 C-13.66376438 242.15475122 -17.52616565 233.98225793 -19.81502056 225.04337025 C-20.39858393 221.29581716 -20.39805452 217.58854286 -20.39717102 213.80607605 C-20.40268605 212.53406632 -20.40268605 212.53406632 -20.4083125 211.23635942 C-20.4193217 208.39609217 -20.42318845 205.55586154 -20.42700195 202.71557617 C-20.43326856 200.67858261 -20.43991554 198.64159018 -20.44691467 196.604599 C-20.46792945 189.91739698 -20.47831289 183.23019479 -20.48828125 176.54296875 C-20.49232941 174.23973389 -20.49644635 171.93649915 -20.50063133 169.63326454 C-20.51967529 158.81465665 -20.53390945 147.99605557 -20.5422433 137.17743415 C-20.55202088 124.69126241 -20.57835745 112.2052677 -20.61874419 99.71915835 C-20.64889767 90.06550769 -20.66371135 80.41190781 -20.66702431 70.75821096 C-20.66937515 64.99331606 -20.67834066 59.22861047 -20.70348549 53.4637661 C-20.7267584 48.04071663 -20.73100245 42.61798125 -20.72072411 37.19489479 C-20.72022849 35.20673198 -20.72655642 33.21855374 -20.74028015 31.23043823 C-20.75799564 28.51154163 -20.75089474 25.79377276 -20.73774719 23.07487488 C-20.75420106 21.900969 -20.75420106 21.900969 -20.77098733 20.70334786 C-20.70614499 15.13118045 -19.28859958 10.93765139 -16.25 6.25 C-11.50905659 1.81066731 -6.31294919 0.48561148 0 0 Z " fill="#0092FF" transform="translate(908.25,489.75)"/>
<path d="M0 0 C7.02007621 7.42122342 5.53513114 17.8355564 5.375 27.3125 C5.35992973 28.86587248 5.34624546 30.41925906 5.33398438 31.97265625 C5.30115497 35.75295615 5.24950254 39.53257063 5.1875 43.3125 C6.44240234 43.2810791 6.44240234 43.2810791 7.72265625 43.24902344 C10.86112309 43.18038034 13.99920416 43.13047437 17.13818359 43.09277344 C19.15097627 43.06303955 21.16342134 43.01218271 23.17578125 42.9609375 C31.28630069 42.87942474 37.39552429 43.04598065 43.69482422 48.65454102 C47.46224541 52.70509044 49.08525791 56.98061066 49.25390625 62.4765625 C48.91938592 68.37628467 46.98415928 72.79266753 43.1875 77.3125 C38.12809292 81.13790535 33.67287721 81.43743586 27.453125 81.41015625 C25.50986328 81.40532227 25.50986328 81.40532227 23.52734375 81.40039062 C22.16406183 81.39203598 20.80078058 81.38357104 19.4375 81.375 C18.05859535 81.36998168 16.67968896 81.36541935 15.30078125 81.36132812 C11.92964341 81.34954093 8.55859372 81.33308635 5.1875 81.3125 C5.22947256 88.48047473 5.30209072 95.64769196 5.39501953 102.81518555 C5.42307072 105.24838408 5.44436322 107.68167105 5.45849609 110.11499023 C4.81709667 132.16459192 4.81709667 132.16459192 14.1875 151.3125 C16.58783186 152.90769572 16.58783186 152.90769572 19.1875 154.0625 C20.033125 154.46984375 20.87875 154.8771875 21.75 155.296875 C26.06488885 157.09474535 29.76838892 157.43137573 34.4375 157.625 C41.11685939 158.13418883 45.91097361 159.12431133 50.78125 163.86328125 C54.79212354 169.06627553 54.92423785 174.56610128 54.6640625 180.9609375 C53.99951406 185.63456503 52.77503571 189.15845819 49.1875 192.3125 C43.29882454 196.24568408 38.09296785 196.92754826 31.125 196.75 C30.20468994 196.73606201 29.28437988 196.72212402 28.33618164 196.70776367 C10.93688142 196.24283329 -7.15480602 191.70655828 -19.5 178.6875 C-32.22373134 163.07736664 -33.94383186 142.99189974 -33.98950195 123.64599609 C-33.99607315 122.41868271 -34.00264435 121.19136932 -34.00941467 119.92686462 C-34.02900429 115.89655296 -34.04078606 111.86628069 -34.05078125 107.8359375 C-34.05483544 106.43999844 -34.05895254 105.04405957 -34.06313133 103.64812088 C-34.08212213 97.09461217 -34.09637338 90.54111437 -34.1047433 83.98758352 C-34.11453424 76.44926447 -34.14092742 68.91123757 -34.18124419 61.37302148 C-34.21144505 55.52390852 -34.22621536 49.6748793 -34.22952431 43.82568991 C-34.23186744 40.34118372 -34.24073328 36.85699191 -34.26598549 33.37257004 C-34.29368969 29.48835688 -34.28942293 25.6045279 -34.2824707 21.72021484 C-34.29528076 20.57714371 -34.30809082 19.43407257 -34.32128906 18.25636292 C-34.26996009 10.38278084 -33.18780958 4.77903416 -27.5 -1.0625 C-18.1081762 -6.74127718 -8.96995797 -5.38197478 0 0 Z " fill="#0092FE" transform="translate(1194.8125,546.6875)"/>
<path d="M0 0 C3.38798215 2.85533547 5.13757909 6.14320601 6.515625 10.27734375 C6.60857005 11.61143937 6.64881455 12.94963615 6.65365601 14.28695679 C6.65910934 15.10002792 6.66456268 15.91309906 6.67018127 16.75080872 C6.6712236 17.6391893 6.67226593 18.52756989 6.67333984 19.44287109 C6.67842056 20.38137405 6.68350128 21.31987701 6.68873596 22.28681946 C6.69944173 24.32644083 6.7080611 26.36607397 6.71485519 28.40571213 C6.72663616 31.6334626 6.74608664 34.86107879 6.76797485 38.08877563 C6.82962085 47.26649516 6.88365911 56.44420084 6.91699219 65.62207031 C6.937925 71.2342146 6.97321668 76.84611398 7.01774979 82.45811844 C7.0319204 84.59751123 7.04063461 86.73694736 7.04380417 88.87638474 C7.04870707 91.86886006 7.07184919 94.86068412 7.09912109 97.85302734 C7.09611496 98.73735947 7.09310883 99.62169159 7.0900116 100.53282166 C7.15389622 105.24778555 7.41272729 108.46853105 10.515625 112.27734375 C12.58614245 113.28863547 12.58614245 113.28863547 14.890625 113.71484375 C19.90369834 115.16578205 21.68338664 116.9002481 24.515625 121.27734375 C27.25330173 127.27415945 27.31274746 132.80206876 25.328125 138.96484375 C22.39781272 144.32024206 19.0620671 147.80841136 13.14453125 149.7734375 C2.98776066 151.72027763 -8.62768974 151.3469591 -17.65625 145.98828125 C-26.92027749 139.47560027 -31.66481564 131.83772275 -34.02290344 120.74375916 C-34.63174668 116.17033843 -34.63183895 111.67738336 -34.62963867 107.06860352 C-34.63299728 106.0548465 -34.6363559 105.04108948 -34.63981628 103.99661255 C-34.64929548 100.65397915 -34.65126776 97.31139599 -34.65234375 93.96875 C-34.655558 91.63996866 -34.6589222 89.31118753 -34.66242981 86.98240662 C-34.66841318 82.10439587 -34.67027048 77.22640283 -34.66967773 72.34838867 C-34.66957606 66.10297575 -34.68323765 59.85767638 -34.70044994 53.61229038 C-34.71157582 48.80384298 -34.71359677 43.99542299 -34.71306801 39.18696404 C-34.71424687 36.88451686 -34.71866339 34.58206895 -34.72640038 32.27963448 C-34.73621369 29.05816845 -34.73331699 25.83694863 -34.72729492 22.61547852 C-34.73291443 21.66824417 -34.73853394 20.72100983 -34.74432373 19.74507141 C-34.71403485 13.35844517 -34.20974347 8.08905533 -30.796875 2.52734375 C-23.19511216 -4.86896604 -8.97959552 -5.48536161 0 0 Z " fill="#0092FE" transform="translate(835.484375,592.72265625)"/>
<path d="M0 0 C5.0456902 5.27503976 6.96629798 10.53290081 7.3125 17.8125 C7.0484681 24.71253356 4.99962519 30.52283809 0.140625 35.53515625 C-5.76099999 40.17794839 -12.86945908 41.52241587 -20.25 40.875 C-28.04824599 39.22082661 -33.55624268 35.73605216 -38.125 29.1875 C-40.64380379 21.77102218 -40.99951664 14.6043935 -38.38671875 7.16796875 C-35.79568806 1.94138794 -31.82016689 -1.70283666 -26.5 -4.0625 C-16.96899508 -7.0363213 -8.17249956 -5.34355741 0 0 Z " fill="#0092FF" transform="translate(838.25,529.125)"/>
</svg>
